<?xml version="1.0" encoding="utf-8"?>
<!-- Generator: Adobe Illustrator 26.4.0, SVG Export Plug-In . SVG Version: 6.00 Build 0)  -->
<svg version="1.1" id="Capa_1" xmlns="http://www.w3.org/2000/svg" xmlns:xlink="http://www.w3.org/1999/xlink" x="0px" y="0px"
	 viewBox="0 0 522.5 522.5" style="enable-background:new 0 0 522.5 522.5;" xml:space="preserve">
<style type="text/css">
	.st0{fill:#FEFEFE;}
	.st1{fill:#1A1A1A;}
</style>
<g id="VJU2qc.tif">
	<g>
		<path class="st0" d="M499,261.8c-0.6,131.7-107.1,238.1-238.2,237.8C129.1,499.2,23.1,392.1,23.5,260
			C23.9,129,130.8,22.7,261.9,23C393,23.3,499.6,130.6,499,261.8z"/>
		<path class="st1" d="M499,261.8c-0.6,131.7-107.1,238.1-238.2,237.8C129.1,499.2,23.1,392.1,23.5,260
			C23.9,129,130.8,22.7,261.9,23C393,23.3,499.6,130.6,499,261.8z"/>
		<path class="st0" d="M297.2,137.8c9.5,0.1,15.9,8.9,12.8,18.5c-6.5,20.6-13.3,41-20.1,61.5c-17,51.7-33.9,103.5-50.9,155.2
			c-3,9.1-9.9,13.4-17.7,10.9c-8.5-2.7-11.9-10.1-8.8-19.6c7.4-22.7,14.9-45.4,22.4-68.1c16-48.7,32-97.5,48-146.2
			C285.8,141.5,290.2,137.8,297.2,137.8z"/>
		<path class="st0" d="M391.6,261.3c-18.2-8.4-35.7-16.4-53.1-24.4c-5.1-2.4-10.3-4.6-15.4-7c-8-3.8-11.1-11.6-7.8-18.9
			c3.2-7,11.3-10.1,19-6.6c32,14.5,63.9,29.2,95.9,43.8c5.6,2.6,8.9,6.9,8.8,13.3c-0.1,6.1-3.3,10.3-8.7,12.8
			c-31.9,14.6-63.9,29.3-95.8,43.9c-8.1,3.7-16,0.7-19.2-6.7c-3.2-7.4,0.1-15,8.2-18.8c20.9-9.7,41.9-19.2,62.8-28.8
			C387.7,263.2,389.2,262.4,391.6,261.3z"/>
		<path class="st0" d="M130.8,261.5c22.9,10.5,44.9,20.5,67,30.5c5.3,2.4,9.4,5.7,10.3,11.8c0.8,5.3-1,9.9-5.3,13.2
			c-4.5,3.4-9.4,3.8-14.5,1.4c-21.7-10-43.4-19.9-65.1-29.8c-9.9-4.6-19.9-9.2-29.8-13.6c-6-2.7-9.9-6.7-9.9-13.6
			c0-6.9,3.9-10.8,9.9-13.5c31.4-14.2,62.7-28.7,94.1-43c11.1-5.1,22.1,2.1,20.8,13.6c-0.6,6.1-4.6,9.6-9.9,12.1
			c-20.7,9.4-41.3,18.9-61.9,28.4C134.7,259.6,133,260.4,130.8,261.5z"/>
	</g>
</g>
</svg>
